<svg xmlns="http://www.w3.org/2000/svg" version="1.1" xmlns:xlink="http://www.w3.org/1999/xlink" xmlns:svgjs="http://svgjs.dev/svgjs" width="1500" height="1647" viewBox="0 0 1500 1647"><g transform="matrix(1,0,0,1,-1.2470443600789167,0)"><svg viewBox="0 0 255 280" data-background-color="#ffffff" preserveAspectRatio="xMidYMid meet" height="1647" width="1500" xmlns="http://www.w3.org/2000/svg" xmlns:xlink="http://www.w3.org/1999/xlink"><g id="tight-bounds" transform="matrix(1,0,0,1,0.21199754121340675,0)"><svg viewBox="0 0 254.57600491757321 280" height="280" width="254.57600491757321"><g><svg viewBox="0 0 278.2696 306.05982690798976" height="280" width="254.57600491757321"><g><svg viewBox="0 0 278.2696 306.05982690798976" height="306.05982690798976" width="278.2696"><g id="textblocktransform"><svg viewBox="0 0 278.2696 306.05982690798976" height="306.05982690798976" width="278.2696" id="textblock"><g><svg viewBox="0 0 278.2696 278.2696" height="278.2696" width="278.2696"><g transform="matrix(1,0,0,1,89.94321971048298,91.54286043240285)"><svg viewBox="0 0 98.38316057903407 95.18387913519435" height="95.18387913519435" width="98.38316057903407"><g id="icon-0"><svg xmlns="http://www.w3.org/2000/svg" xmlns:xlink="http://www.w3.org/1999/xlink" version="1.1" x="0" y="0" viewBox="2.7560994681698 4.957155220659115 94.20630063647344 91.14284477934088" enable-background="new 0 0 100 100" xml:space="preserve" height="95.18387913519435" width="98.38316057903407" class="icon-xg-0" data-fill-palette-color="accent" id="xg-0"><g fill="#ff908b" data-fill-palette-color="accent"><g fill="#ff908b" data-fill-palette-color="accent"><g fill="#ff908b" data-fill-palette-color="accent"><path d="M48.9 91.3c0 2.1-0.3 3-1.3 4.8H13.7 6.7c1.1-6.8 9.5-20.5 10.2-20.3 3.5 1.3 10.2 2.5 12.3-4.8 0.7-2.3 1.4-10.2-0.3-14.9 2.8 6.7 12.1 10 12.1 10 1.9 1.1 2.5 4.3 0.3 4.2-0.1 0-6.1 1.3-7.2 1 1.1 0.9 6.8 4.5 9.3 4.8l-11.9 4.6c2.4 0.4 12.2 0.6 14.6 0.5-0.6 0.8-8.2 2.9-9.8 6.1C35.7 88.4 45.2 85.4 48.9 91.3zM72.7 74.5c0 0-4.2 5.1-12.3 2.5-0.1 0-0.6 0.8 0.1 2.4 0.3 0.5 4.8 1.9 8.5 1.8-2.4 1.6-7.2 3.4-8.3 3.7 0 0.1 8 0.1 9.3 5.1-5.3-1-10.4 0.3-10.8 1.3-1.2 3 1.8 4.8 1.8 4.8h17.2c-0.5-2.4 0.6-8.1-2.6-12.9C74.1 81.2 72.6 76.9 72.7 74.5zM95.6 52.7c-1.3 1.6-6.5-1.3-8-2.6-2.8-2.3-7.2-5.9-8.3-9.4-0.7-2.4-1.7-10.9-2-13.4-0.3-2.5-0.7-5.3-2-7-1.5-2-3.9-3.5-5.9-2 3.2 1.2 4.7 4.1 5.7 7.6 1 3.4 1.2 7.2 1.3 9.2 0.4 6.3-0.4 12.3 1.2 18.4 2.3 7.1 4.6 14.8-4.4 16.2 0 0-3.6 4.3-6.2 4.7-2.8 0.5-5.7 0-8.4-0.8-0.2-0.1-1.1 0.8-2.5 1-5 0.7-7.5-4.3-8.4-5.3-4.2-4.4-8.9-6.5-10-7.3-2.4-1.8-4.9-2.7-6.5-5.3-1.3-2.1-2.9-4.7-3.5-7.1-0.6-2.4-1.5-6.3-1.7-12-0.1-4.4-2.1-3-1.9 2.2 0.3 7.9 3.1 14.3 3.2 23.2 0 2.8 0.1 4.8-1.3 7.3-0.6 1.2-1.4 2.7-2.7 3.2-3.1 1.3-5.4-0.3-7.6-2.4C11 66.2 8.1 61 4.4 55.3c-0.7-1.1-1.4-2.2-1.6-3.5-0.3-2.1 1-4.1 2-6C7.1 41.8 7 35.3 9.2 31.1c2.2-4.1 5.6-6 10.1-7.2 2.1-0.5 4.3-0.5 6.3-1.1 1.6-0.5 3.1-1.1 4.4-2.2 8.3-6.5 15.2-8.8 24.2-9.9 0.8-0.1 4-0.5 5.9-2 5.8-4.7 12.1-4.5 16.3-2 1.6 0.9 5.9 4.4 7.1 5.8 3.6 4.3 5.7 8.4 8.2 11.3 1.3 1.5 4.2 3 4.5 5.6 0.4 3.4 0 6.5-0.1 10C96 42.7 98.4 49.2 95.6 52.7zM35.1 36.2c1.2-0.8 2.7-0.5 4.2-0.7 1-0.1 0.7-1.9-0.1-2.2-3.2-1.3-5.3 0.6-6.4 2.2-1.1 1.6-1.6 3.9-1.3 5.9 0.1 1 0.6 0.8 0.5-0.1C31.7 39.7 33.5 37.2 35.1 36.2zM40.2 40.5c-0.4-0.4-1-0.3-1.5-0.2-0.7 0.1-1.3 0.4-1.7 0.9-0.8 1.2-0.2 3 1.9 2.4C40.3 43.2 41.9 42.3 40.2 40.5zM42.7 40.2c0 0-1.9-0.3-2.5-0.4 0.2 0.4 1.6 1.1 1.8 1.6 1.2 3.3-1.7 4.2-3.6 4.2-2.1 0.1-2.6-1.1-3.2-2.2-0.1-0.1 1.5-2.6 1.4-2.7-0.1-0.1-1.3 1.6-1.3 1.5-0.3 0.7-2.1 2.2-1.8 3.6 0.5 1.7 2.9 2.9 6.6 1.9 2.2-0.6 3.9-1.6 4.2-3.9C44.5 42.6 44.1 40.8 42.7 40.2zM42.7 40.2M70.8 69.3c-1.1 0.1-2.2 0.2-3.4 0.6-1.7 0.7-3.3 1.7-5 2.3-0.3 0.1-0.7 0.2-1 0.3 1.5 0.3 2.9 0.4 4.4 0.3 1.6-0.1 2.5-0.7 3.5-1.8C69.8 70.5 70.3 69.9 70.8 69.3zM60.1 39.7c-1.5-1.2-3.5-3.5-4.5-5.1-1-1.6-0.9-3.8-1.1-5.6C54 24.7 57 17 57 16.9c-0.1-0.3-4.2 0.7-4.9 3.3-0.2 0.8 0.3 1.5-0.5 1.4-0.4 0-2.4-5.4-2.7-5.6-0.2-0.1-2.5 2.4-1.9 6.9-0.4-0.5-4.4-3.8-10-2.4-0.3 0.1 6.2 2.7 8.1 6.2-1.9-1.8-6.8-0.3-7.4 1.4 2.9 0.6 7 3 8 4.1 1.6 1.8 2 3.4 2.4 5.8 0.5 3.4 0.9 6 0.6 9.3-1.1 10.1-1.9 16.2 1.8 21.8 1 1.3 1.7 1.7 2.7 2.3 3 1.1 6 0.4 9-0.7 1.6-0.6 3-1.4 4.5-2-1.1-1.3-3.7 0-4.6 0.2-1 0.2-7 0.8-7.6-5.3-0.6-6.1 4.2-6.2 5.3-6.2 1.1 0 3.3-0.4 4.3-1.5 1.1-1.2 5.2-3.5 7.9 0.7 2.3 3.7 1 9-1.1 9.1-2.4 0.1-3.2 1.6-3.5 2.8 0.9-0.3 1.8-0.5 2.8-0.6 1.7-0.1 3.5 0.1 4.9-1.2 1.2-1.2 2.1-3.3 2.2-5 0.1-2.9-0.2-5.6-1.8-8.2C73.3 48.6 63.2 42.2 60.1 39.7zM69.4 62.3c-0.9 0.5-2.1 0.1-2.7-0.5-0.4-0.4-1.1 0.3-0.7 0.7 0.9 0.8 2 1.2 3.8 0.7 1.2-0.3 2.3-1.8 1.7-3.2-0.2-0.5-1.2-0.2-1.1 0.4C70.5 61.3 70.1 61.9 69.4 62.3zM60.5 65.2c-0.9 0.3-2.1 0-2.6-0.7-0.4-0.5-1.2 0-0.8 0.5 0.4 2.1 6.2 2.8 6.2-1.7 0-0.6-1-0.6-0.9 0C62.4 64.5 61.5 64.9 60.5 65.2zM63.1 31c-0.3 0.7-0.8 1.9-0.8 1.9 0.1 0.5-0.3 1.7 0.3 2.7 0.4 0.6 3.8 2.9 8.2-0.1 1.1-0.8 2.7-4.7 0.8-6.3 0 0-2.5-0.1-2.8-0.2-0.3 0-2.6 0.1-2.9 0.1 0.1 0.1 1.6 0.4 2.8 0.8 0.6 0.2 1 0.9 1 1.6 0.1 2.6-2.3 3.2-4 3.2-2.2 0-2.4-1.3-2.9-2.3C62.8 32.2 63.1 31.3 63.1 31zM63.5 31.6c0.2 1.8 2 1.9 3.3 1 1.1-0.7 1.6-2-0.3-2.8-0.5-0.2-1.3-0.3-1.9 0.1C64.1 30.3 63.4 31.1 63.5 31.6zM62.9 22.5c-0.9 0.4-2 3.4 0.6 2.4 2.2-0.8 4-1.1 6.3 0.5 1.4 1 1.5-0.2 1.5-0.2C69.6 22 66 21.2 62.9 22.5z" fill="#ff908b" data-fill-palette-color="accent"></path></g></g></g></svg></g></svg></g><g id="text-0"><path d="M26.965 112.418l-20.334-21.846 2.167-5.392 29.939-2.053-2.148 5.345-5.022 0.311-5.887 14.646 3.437 3.635zM22.272 99.805l4.3-10.7-13.568 0.842z" fill="#ff908b" data-fill-palette-color="primary"></path><path d="M32.568 74.331v0c-1.297-0.974-2.284-2.098-2.963-3.371-0.684-1.277-1.072-2.624-1.163-4.042-0.095-1.413 0.101-2.862 0.589-4.349 0.488-1.486 1.251-2.921 2.29-4.303v0c0.443-0.589 0.919-1.145 1.429-1.668 0.5-0.521 1.017-0.996 1.549-1.426 0.527-0.434 1.054-0.817 1.582-1.151 0.532-0.329 1.038-0.595 1.516-0.797v0l-7.796-5.858 3.074-4.091 22.931 17.229-3.073 4.091-1.536-1.153c-0.018 0.548-0.102 1.151-0.252 1.809-0.147 0.653-0.348 1.323-0.605 2.01-0.253 0.682-0.558 1.362-0.917 2.041-0.358 0.678-0.759 1.312-1.202 1.901v0c-1.039 1.383-2.194 2.497-3.467 3.343-1.271 0.856-2.589 1.421-3.953 1.695-1.358 0.279-2.727 0.265-4.105-0.041-1.375-0.312-2.684-0.935-3.928-1.869zM35.793 70.038v0c0.654 0.491 1.371 0.825 2.153 1.001 0.776 0.172 1.569 0.177 2.378 0.015 0.804-0.167 1.594-0.504 2.37-1.012 0.781-0.503 1.497-1.189 2.149-2.057v0c0.415-0.552 0.776-1.144 1.083-1.777 0.307-0.632 0.558-1.278 0.752-1.937 0.19-0.654 0.312-1.308 0.367-1.963 0.065-0.655 0.051-1.278-0.042-1.867v0l-5.651-4.246c-0.646 0.168-1.258 0.396-1.834 0.684-0.577 0.288-1.116 0.616-1.62 0.984-0.512 0.37-0.987 0.772-1.422 1.207-0.436 0.435-0.827 0.883-1.174 1.345v0c-0.705 0.938-1.204 1.87-1.498 2.797-0.296 0.918-0.413 1.794-0.352 2.628 0.066 0.838 0.299 1.616 0.698 2.335 0.394 0.715 0.941 1.336 1.643 1.863z" fill="#ff908b" data-fill-palette-color="primary"></path><path d="M54.166 48.27v0c-0.896-1.162-1.499-2.433-1.809-3.811-0.315-1.374-0.327-2.773-0.038-4.198 0.29-1.434 0.884-2.844 1.779-4.228 0.897-1.394 2.118-2.687 3.662-3.878v0c1.544-1.191 3.105-2.043 4.682-2.557 1.572-0.518 3.086-0.734 4.542-0.646 1.452 0.082 2.804 0.448 4.058 1.098 1.249 0.654 2.321 1.562 3.218 2.724v0c0.892 1.157 1.496 2.423 1.81 3.796 0.309 1.378 0.319 2.779 0.031 4.205-0.285 1.43-0.876 2.842-1.774 4.236-0.901 1.389-2.124 2.679-3.668 3.87v0c-1.544 1.191-3.103 2.046-4.675 2.565-1.571 0.509-3.087 0.722-4.548 0.638-1.452-0.082-2.802-0.45-4.051-1.104-1.254-0.649-2.327-1.553-3.219-2.71zM58.425 44.985v0c0.499 0.648 1.102 1.16 1.808 1.539 0.706 0.378 1.476 0.597 2.31 0.656 0.843 0.061 1.723-0.055 2.639-0.347 0.917-0.292 1.832-0.791 2.745-1.494v0c0.913-0.704 1.627-1.462 2.143-2.275 0.516-0.813 0.851-1.634 1.007-2.465 0.154-0.821 0.138-1.621-0.048-2.401-0.186-0.779-0.529-1.492-1.028-2.139v0c-0.503-0.653-1.11-1.171-1.821-1.555-0.71-0.383-1.482-0.605-2.315-0.664-0.839-0.056-1.716 0.063-2.634 0.355-0.917 0.292-1.832 0.791-2.745 1.494v0c-0.913 0.704-1.627 1.462-2.143 2.275-0.516 0.813-0.854 1.632-1.013 2.457-0.154 0.821-0.136 1.624 0.055 2.409 0.19 0.784 0.537 1.503 1.04 2.155z" fill="#ff908b" data-fill-palette-color="primary"></path><path d="M90.506 34.909l3.761 9.052-4.726 1.963-11.025-26.534 4.726-1.963 0.737 1.773c0.296-0.457 0.672-0.933 1.127-1.426 0.464-0.49 0.978-0.965 1.542-1.425 0.57-0.462 1.179-0.893 1.826-1.292 0.647-0.399 1.317-0.743 2.01-1.031v0c1.597-0.663 3.158-1.036 4.685-1.119 1.53-0.091 2.952 0.091 4.266 0.546 1.312 0.449 2.481 1.158 3.506 2.125 1.032 0.965 1.847 2.165 2.443 3.601v0c0.622 1.498 0.904 2.97 0.845 4.417-0.062 1.441-0.413 2.796-1.055 4.064-0.639 1.274-1.544 2.423-2.715 3.447-1.175 1.033-2.561 1.881-4.158 2.544v0c-0.681 0.283-1.373 0.52-2.078 0.711-0.696 0.195-1.381 0.345-2.055 0.451-0.677 0.1-1.327 0.16-1.951 0.179-0.626 0.013-1.196-0.015-1.711-0.083zM85.896 23.814l2.712 6.527c0.642 0.183 1.285 0.297 1.927 0.342 0.643 0.045 1.274 0.037 1.895-0.025 0.623-0.056 1.236-0.161 1.839-0.318 0.597-0.154 1.161-0.341 1.693-0.562v0c1.083-0.45 1.987-1 2.712-1.649 0.721-0.641 1.267-1.336 1.637-2.085 0.368-0.755 0.563-1.544 0.585-2.366 0.024-0.816-0.132-1.629-0.469-2.439v0c-0.314-0.755-0.761-1.404-1.342-1.947-0.584-0.549-1.264-0.955-2.042-1.22-0.78-0.271-1.633-0.385-2.559-0.341-0.928 0.037-1.893 0.264-2.896 0.681v0c-0.638 0.265-1.249 0.592-1.836 0.98-0.586 0.389-1.13 0.818-1.631 1.288-0.495 0.467-0.933 0.968-1.313 1.503-0.389 0.532-0.693 1.075-0.912 1.631z" fill="#ff908b" data-fill-palette-color="primary"></path><path d="M118.897 27.22l-2.729-16.332-4.858 0.812-0.633-3.788 4.859-0.812-1.046-6.257 5.047-0.843 1.046 6.257 4.859-0.812 0.633 3.788-4.859 0.812 2.729 16.332z" fill="#ff908b" data-fill-palette-color="primary"></path><path d="M134.617 19.046v0c0.04-0.978 0.288-1.86 0.744-2.646 0.462-0.786 1.13-1.452 2.005-1.999 0.881-0.547 1.965-0.952 3.25-1.214 1.286-0.269 2.772-0.368 4.459-0.299v0c1.259 0.052 2.578 0.201 3.956 0.446 1.379 0.238 2.797 0.579 4.255 1.021v0c-0.027-0.645-0.196-1.249-0.509-1.812-0.312-0.563-0.758-1.054-1.337-1.474-0.573-0.42-1.273-0.757-2.102-1.013-0.828-0.256-1.771-0.405-2.829-0.449v0c-0.576-0.024-1.21-0.013-1.903 0.032-0.693 0.038-1.41 0.113-2.152 0.223-0.742 0.103-1.479 0.244-2.211 0.422-0.725 0.178-1.405 0.398-2.04 0.66v0l-1.383-4.264c0.788-0.242 1.626-0.459 2.512-0.65 0.894-0.198 1.803-0.361 2.727-0.491 0.931-0.129 1.857-0.218 2.778-0.267 0.928-0.055 1.824-0.065 2.688-0.03v0c3.81 0.158 6.603 1.249 8.377 3.275 1.775 2.019 2.579 5.037 2.412 9.055v0l-0.367 8.88-5.113-0.212 0.079-1.918c-0.549 0.293-1.14 0.563-1.774 0.812-0.641 0.248-1.334 0.461-2.079 0.638-0.745 0.177-1.542 0.308-2.391 0.394-0.855 0.085-1.755 0.108-2.7 0.069v0c-1.587-0.066-2.976-0.294-4.167-0.685-1.184-0.398-2.169-0.918-2.954-1.561-0.778-0.643-1.355-1.384-1.729-2.225-0.374-0.841-0.541-1.746-0.502-2.718zM140.009 19.098v0c-0.014 0.335 0.06 0.66 0.221 0.975 0.162 0.309 0.428 0.588 0.8 0.839 0.365 0.257 0.843 0.468 1.433 0.632 0.583 0.172 1.297 0.275 2.14 0.31v0c0.897 0.037 1.771-0.007 2.622-0.132 0.844-0.126 1.633-0.308 2.367-0.546 0.741-0.238 1.41-0.515 2.007-0.833 0.604-0.324 1.111-0.662 1.521-1.014v0l0.037-0.894c-0.774-0.253-1.544-0.47-2.308-0.649-0.757-0.186-1.482-0.333-2.175-0.442-0.693-0.116-1.347-0.203-1.961-0.262-0.614-0.066-1.153-0.108-1.615-0.127v0c-0.958-0.04-1.754-0.009-2.388 0.092-0.641 0.101-1.161 0.25-1.558 0.448-0.404 0.198-0.692 0.438-0.865 0.719-0.173 0.281-0.265 0.576-0.278 0.884z" fill="#ff908b" data-fill-palette-color="primary"></path><path d="M162.772 27.618l20.95-21.256 5.48 1.933 3.34 29.823-5.432-1.916-0.527-5.004-14.886-5.25-3.483 3.59zM175.171 22.386l10.875 3.836-1.426-13.52z" fill="#ff908b" data-fill-palette-color="primary"></path><path d="M196.125 40.679l12.551-16.08 4.034 3.149-1.064 1.363c1.492 0.17 2.808 0.509 3.95 1.017 1.146 0.503 2.179 1.114 3.098 1.831v0c1.284 1.002 2.301 2.123 3.051 3.363 0.751 1.249 1.188 2.585 1.31 4.008v0c0.946 0.007 1.827 0.078 2.641 0.211 0.814 0.134 1.582 0.325 2.305 0.576 0.728 0.254 1.424 0.567 2.086 0.939 0.652 0.373 1.293 0.805 1.921 1.296v0c1.316 1.027 2.369 2.138 3.162 3.335 0.792 1.196 1.292 2.446 1.501 3.747 0.203 1.298 0.098 2.636-0.315 4.014-0.412 1.388-1.16 2.776-2.244 4.166v0l-6.168 7.902-4.026-3.143 5.661-7.251c0.689-0.882 1.179-1.766 1.47-2.653 0.296-0.891 0.405-1.75 0.328-2.576-0.078-0.826-0.332-1.607-0.762-2.341-0.426-0.74-1.011-1.401-1.756-1.983v0c-0.407-0.318-0.855-0.604-1.344-0.858-0.49-0.255-0.997-0.46-1.523-0.615-0.535-0.154-1.078-0.242-1.63-0.265-0.548-0.028-1.086 0.024-1.614 0.156v0l-8.475 10.858-4.018-3.136 5.66-7.252c0.689-0.882 1.179-1.766 1.471-2.652 0.291-0.895 0.397-1.756 0.32-2.582-0.078-0.826-0.334-1.609-0.77-2.348-0.436-0.748-1.032-1.418-1.787-2.007v0c-0.46-0.359-0.962-0.674-1.506-0.946-0.539-0.268-1.093-0.484-1.663-0.648-0.569-0.164-1.136-0.271-1.701-0.32-0.569-0.044-1.124-0.031-1.664 0.04v0l-8.456 10.834z" fill="#ff908b" data-fill-palette-color="primary"></path><path d="M239.397 65.095v0c1.242-0.782 2.563-1.262 3.965-1.44 1.398-0.183 2.792-0.064 4.183 0.359 1.4 0.425 2.748 1.149 4.041 2.171 1.303 1.025 2.474 2.362 3.514 4.013v0c1.04 1.65 1.74 3.284 2.102 4.902 0.367 1.614 0.439 3.142 0.213 4.583-0.219 1.437-0.712 2.75-1.476 3.936-0.769 1.181-1.774 2.163-3.016 2.946v0c-1.236 0.779-2.553 1.26-3.951 1.443-1.401 0.178-2.797 0.055-4.189-0.368-1.397-0.419-2.747-1.141-4.049-2.166-1.297-1.028-2.466-2.368-3.506-4.018v0c-1.04-1.65-1.743-3.283-2.11-4.896-0.358-1.612-0.426-3.142-0.205-4.589 0.219-1.437 0.713-2.747 1.482-3.928 0.765-1.187 1.766-2.17 3.002-2.948zM242.264 69.646v0c-0.692 0.436-1.259 0.987-1.702 1.654-0.443 0.667-0.734 1.413-0.873 2.237-0.141 0.833-0.109 1.72 0.096 2.661 0.204 0.941 0.614 1.899 1.228 2.874v0c0.614 0.975 1.302 1.758 2.062 2.349 0.76 0.591 1.546 1.002 2.359 1.235 0.803 0.231 1.601 0.291 2.394 0.179 0.793-0.112 1.536-0.385 2.228-0.821v0c0.698-0.439 1.271-0.995 1.719-1.665 0.449-0.671 0.742-1.418 0.881-2.243 0.135-0.83 0.1-1.715-0.104-2.655-0.204-0.941-0.614-1.899-1.229-2.874v0c-0.614-0.975-1.302-1.758-2.062-2.349-0.76-0.591-1.543-1.004-2.35-1.24-0.803-0.231-1.604-0.289-2.402-0.174-0.799 0.115-1.547 0.392-2.245 0.832z" fill="#ff908b" data-fill-palette-color="primary"></path><path d="M246.662 98.589l19.215-6.848 1.718 4.82-2.765 0.986c1.169 0.786 2.252 1.666 3.247 2.642 0.995 0.976 1.857 1.996 2.584 3.06v0l-3.906 2.993c-0.851-1.789-1.849-3.272-2.995-4.451-1.146-1.178-2.462-1.997-3.95-2.456v0l-11.43 4.074z" fill="#ff908b" data-fill-palette-color="primary"></path><path d="M8.023 178.561l29.796 1.699 2.167 5.391-20.191 22.201-2.148-5.345 3.41-3.7-5.886-14.646-4.996-0.245zM20.139 184.418l4.3 10.7 9.212-9.998z" fill="#ff908b" data-fill-palette-color="primary"></path><path d="M32.419 209.148v0c1.297-0.974 2.651-1.61 4.062-1.907 1.417-0.301 2.819-0.299 4.206 0.008 1.384 0.302 2.721 0.894 4.013 1.776 1.292 0.882 2.457 2.015 3.495 3.397v0c0.443 0.589 0.844 1.202 1.204 1.837 0.361 0.626 0.674 1.254 0.939 1.885 0.27 0.627 0.492 1.24 0.665 1.84 0.168 0.603 0.282 1.163 0.343 1.678v0l7.797-5.857 3.074 4.091-22.932 17.229-3.074-4.092 1.535-1.153c-0.522-0.17-1.077-0.419-1.667-0.747-0.586-0.323-1.173-0.703-1.763-1.14-0.585-0.432-1.153-0.915-1.704-1.448-0.551-0.533-1.048-1.094-1.491-1.684v0c-1.039-1.383-1.787-2.803-2.246-4.261-0.468-1.459-0.644-2.882-0.528-4.268 0.11-1.382 0.504-2.693 1.183-3.932 0.683-1.234 1.646-2.318 2.889-3.252zM35.643 213.44v0c-0.654 0.491-1.174 1.087-1.561 1.789-0.381 0.697-0.607 1.458-0.675 2.281-0.064 0.819 0.04 1.672 0.312 2.557 0.266 0.89 0.725 1.769 1.377 2.637v0c0.415 0.552 0.883 1.064 1.405 1.535 0.522 0.471 1.072 0.892 1.652 1.261 0.575 0.364 1.169 0.664 1.782 0.9 0.611 0.245 1.213 0.404 1.806 0.479v0l5.651-4.246c0.018-0.668-0.031-1.318-0.147-1.952-0.116-0.634-0.281-1.244-0.494-1.829-0.212-0.595-0.467-1.162-0.764-1.703-0.297-0.54-0.618-1.04-0.964-1.501v0c-0.705-0.938-1.461-1.677-2.27-2.218-0.799-0.54-1.608-0.896-2.426-1.069-0.823-0.17-1.636-0.163-2.437 0.02-0.796 0.179-1.545 0.532-2.247 1.059z" fill="#ff908b" data-fill-palette-color="primary"></path><path d="M54.15 235.117v0c0.896-1.162 1.972-2.068 3.225-2.718 1.249-0.654 2.599-1.022 4.051-1.104 1.461-0.084 2.975 0.132 4.542 0.646 1.576 0.513 3.137 1.365 4.681 2.557v0c1.544 1.191 2.765 2.484 3.662 3.878 0.901 1.389 1.494 2.798 1.78 4.228 0.289 1.425 0.279 2.826-0.031 4.205-0.315 1.374-0.92 2.642-1.816 3.804v0c-0.892 1.157-1.963 2.062-3.212 2.716-1.254 0.649-2.607 1.015-4.058 1.098-1.456 0.088-2.972-0.125-4.549-0.638-1.572-0.518-3.131-1.373-4.675-2.565v0c-1.544-1.191-2.767-2.481-3.668-3.87-0.892-1.39-1.483-2.802-1.773-4.236-0.289-1.425-0.277-2.824 0.038-4.198 0.309-1.378 0.91-2.646 1.803-3.803zM58.409 238.402v0c-0.499 0.648-0.842 1.361-1.028 2.14-0.186 0.779-0.202 1.579-0.049 2.4 0.155 0.831 0.491 1.652 1.007 2.465 0.516 0.813 1.23 1.571 2.143 2.275v0c0.913 0.704 1.828 1.202 2.745 1.494 0.917 0.292 1.797 0.408 2.64 0.347 0.833-0.06 1.603-0.279 2.309-0.656 0.706-0.378 1.309-0.891 1.808-1.539v0c0.503-0.653 0.85-1.371 1.041-2.155 0.19-0.784 0.208-1.587 0.054-2.409-0.159-0.825-0.497-1.644-1.012-2.457-0.516-0.813-1.23-1.571-2.144-2.274v0c-0.913-0.704-1.828-1.202-2.745-1.495-0.917-0.292-1.795-0.411-2.633-0.355-0.833 0.06-1.605 0.281-2.316 0.665-0.71 0.383-1.317 0.901-1.82 1.554z" fill="#ff908b" data-fill-palette-color="primary"></path><path d="M83.799 264.599l-3.761 9.052-4.726-1.964 11.025-26.533 4.726 1.963-0.737 1.773c0.533-0.112 1.135-0.182 1.806-0.207 0.675-0.017 1.374 0.012 2.098 0.087 0.73 0.078 1.464 0.206 2.203 0.383 0.74 0.177 1.456 0.409 2.149 0.697v0c1.597 0.663 2.963 1.507 4.098 2.53 1.144 1.02 2.018 2.156 2.623 3.408 0.607 1.247 0.93 2.575 0.969 3.984 0.045 1.412-0.231 2.836-0.828 4.272v0c-0.622 1.498-1.467 2.736-2.535 3.716-1.065 0.973-2.273 1.679-3.624 2.119-1.354 0.446-2.807 0.616-4.359 0.508-1.561-0.104-3.14-0.488-4.736-1.151v0c-0.681-0.283-1.337-0.607-1.97-0.971-0.629-0.356-1.219-0.735-1.77-1.138-0.548-0.409-1.049-0.828-1.503-1.256-0.451-0.434-0.834-0.858-1.148-1.272zM88.409 253.504l-2.712 6.527c0.323 0.584 0.696 1.12 1.117 1.608 0.422 0.487 0.873 0.929 1.355 1.325 0.479 0.402 0.986 0.762 1.522 1.078 0.53 0.314 1.061 0.582 1.593 0.804v0c1.083 0.45 2.11 0.703 3.082 0.758 0.963 0.059 1.84-0.045 2.633-0.311 0.795-0.272 1.492-0.69 2.089-1.255 0.595-0.558 1.061-1.243 1.398-2.053v0c0.314-0.755 0.458-1.53 0.432-2.325-0.023-0.801-0.215-1.57-0.576-2.308-0.359-0.744-0.88-1.429-1.563-2.054-0.681-0.631-1.523-1.155-2.526-1.572v0c-0.638-0.265-1.301-0.468-1.99-0.609-0.689-0.141-1.377-0.224-2.063-0.247-0.681-0.021-1.345 0.022-1.992 0.13-0.651 0.1-1.251 0.268-1.799 0.504z" fill="#ff908b" data-fill-palette-color="primary"></path><path d="M115.533 276.282l2.729-16.332-4.859-0.812 0.633-3.788 4.859 0.812 1.045-6.257 5.047 0.843-1.045 6.257 4.859 0.812-0.633 3.788-4.859-0.812-2.729 16.332z" fill="#ff908b" data-fill-palette-color="primary"></path><path d="M134.93 271.86v0c-0.04-0.978 0.134-1.877 0.522-2.698 0.395-0.821 1.006-1.541 1.832-2.159 0.833-0.618 1.879-1.111 3.139-1.478 1.259-0.374 2.732-0.596 4.42-0.666v0c1.259-0.052 2.585-0.013 3.979 0.117 1.394 0.123 2.835 0.345 4.324 0.666v0c-0.08-0.641-0.299-1.229-0.656-1.764-0.358-0.535-0.843-0.988-1.455-1.359-0.606-0.371-1.332-0.649-2.178-0.835-0.846-0.186-1.798-0.258-2.857-0.214v0c-0.576 0.024-1.207 0.087-1.893 0.189-0.687 0.096-1.396 0.229-2.127 0.4-0.731 0.164-1.454 0.365-2.169 0.603-0.708 0.237-1.367 0.513-1.978 0.827v0l-1.731-4.135c0.765-0.307 1.582-0.592 2.45-0.856 0.874-0.271 1.767-0.509 2.677-0.714 0.917-0.206 1.833-0.371 2.747-0.496 0.92-0.132 1.812-0.216 2.676-0.252v0c3.81-0.158 6.683 0.699 8.619 2.571 1.935 1.865 2.986 4.807 3.153 8.825v0l0.367 8.88-5.113 0.211-0.079-1.918c-0.523 0.337-1.09 0.656-1.701 0.956-0.618 0.301-1.291 0.57-2.019 0.808-0.728 0.238-1.511 0.435-2.351 0.59-0.845 0.156-1.74 0.253-2.684 0.292v0c-1.587 0.066-2.99-0.047-4.21-0.338-1.213-0.299-2.237-0.736-3.073-1.312-0.829-0.576-1.465-1.268-1.907-2.074-0.443-0.807-0.684-1.696-0.724-2.667zM140.307 271.466v0c0.014 0.335 0.114 0.653 0.301 0.954 0.187 0.294 0.476 0.55 0.867 0.769 0.385 0.226 0.878 0.396 1.48 0.512 0.595 0.123 1.315 0.167 2.159 0.132v0c0.897-0.037 1.765-0.154 2.601-0.349 0.83-0.195 1.602-0.442 2.314-0.74 0.719-0.298 1.363-0.63 1.931-0.996 0.575-0.373 1.052-0.751 1.432-1.135v0l-0.037-0.894c-0.793-0.189-1.577-0.341-2.353-0.456-0.77-0.122-1.505-0.209-2.204-0.261-0.7-0.058-1.359-0.091-1.977-0.1-0.618-0.015-1.158-0.012-1.619 0.007v0c-0.958 0.04-1.749 0.136-2.373 0.289-0.631 0.154-1.136 0.346-1.516 0.576-0.386 0.231-0.654 0.493-0.802 0.788-0.149 0.295-0.217 0.596-0.204 0.904z" fill="#ff908b" data-fill-palette-color="primary"></path><path d="M169.562 275.001l2.98-29.696 5.48-1.933 21.311 21.128-5.433 1.917-3.55-3.567-14.885 5.25-0.461 4.981zM175.935 263.148l10.875-3.836-9.591-9.634z" fill="#ff908b" data-fill-palette-color="primary"></path><path d="M208.686 258.78l-12.551-16.08 4.034-3.149 1.064 1.363c0.527-1.406 1.175-2.601 1.946-3.585 0.767-0.989 1.61-1.843 2.529-2.56v0c1.284-1.002 2.618-1.716 4.003-2.143 1.394-0.425 2.796-0.524 4.205-0.298v0c0.237-0.916 0.519-1.753 0.847-2.51 0.327-0.757 0.7-1.456 1.118-2.097 0.423-0.645 0.896-1.243 1.417-1.795 0.52-0.542 1.095-1.059 1.724-1.55v0c1.316-1.027 2.65-1.779 4.003-2.257 1.353-0.478 2.686-0.66 3.999-0.545 1.308 0.118 2.581 0.545 3.818 1.28 1.246 0.736 2.412 1.799 3.496 3.188v0l6.168 7.902-4.026 3.142-5.66-7.251c-0.689-0.882-1.427-1.573-2.216-2.071-0.793-0.504-1.599-0.818-2.42-0.943-0.82-0.125-1.639-0.068-2.456 0.17-0.821 0.233-1.605 0.64-2.35 1.221v0c-0.407 0.318-0.793 0.683-1.159 1.097-0.366 0.413-0.688 0.856-0.966 1.327-0.279 0.481-0.497 0.987-0.652 1.517-0.16 0.525-0.24 1.059-0.241 1.604v0l8.475 10.857-4.018 3.137-5.661-7.252c-0.689-0.882-1.427-1.573-2.215-2.071-0.798-0.499-1.607-0.812-2.428-0.937-0.82-0.125-1.642-0.066-2.464 0.176-0.832 0.241-1.626 0.657-2.381 1.247v0c-0.46 0.359-0.887 0.769-1.284 1.231-0.391 0.458-0.735 0.943-1.031 1.456-0.297 0.513-0.538 1.037-0.724 1.573-0.181 0.541-0.303 1.082-0.365 1.624v0l8.456 10.833z" fill="#ff908b" data-fill-palette-color="primary"></path><path d="M239.42 218.286v0c-1.242-0.782-2.245-1.767-3.011-2.955-0.769-1.181-1.263-2.491-1.482-3.928-0.221-1.447-0.15-2.974 0.213-4.582 0.362-1.618 1.062-3.252 2.102-4.903v0c1.04-1.65 2.211-2.988 3.514-4.012 1.297-1.028 2.645-1.752 4.041-2.171 1.391-0.423 2.787-0.545 4.189-0.368 1.398 0.183 2.717 0.666 3.959 1.448v0c1.236 0.779 2.239 1.759 3.007 2.941 0.765 1.187 1.257 2.499 1.477 3.936 0.225 1.441 0.157 2.97-0.205 4.588-0.367 1.614-1.071 3.247-2.11 4.897v0c-1.04 1.65-2.208 2.99-3.506 4.018-1.299 1.019-2.649 1.741-4.049 2.166-1.391 0.423-2.785 0.542-4.183 0.359-1.401-0.178-2.72-0.656-3.956-1.434zM242.286 213.735v0c0.692 0.436 1.434 0.71 2.228 0.821 0.793 0.112 1.591 0.052 2.394-0.179 0.812-0.233 1.598-0.645 2.359-1.236 0.76-0.591 1.447-1.373 2.062-2.349v0c0.614-0.975 1.024-1.933 1.228-2.874 0.204-0.941 0.236-1.828 0.096-2.66-0.138-0.824-0.429-1.569-0.873-2.237-0.443-0.667-1.011-1.219-1.702-1.655v0c-0.698-0.439-1.446-0.717-2.245-0.831-0.799-0.115-1.6-0.057-2.402 0.173-0.806 0.237-1.59 0.65-2.35 1.241-0.76 0.591-1.447 1.373-2.062 2.349v0c-0.614 0.975-1.024 1.933-1.229 2.874-0.204 0.941-0.239 1.826-0.104 2.655 0.138 0.824 0.432 1.571 0.881 2.242 0.449 0.671 1.022 1.226 1.719 1.666z" fill="#ff908b" data-fill-palette-color="primary"></path><path d="M265.892 191.631l-19.215-6.848 1.718-4.821 2.766 0.986c-0.409-1.348-0.69-2.715-0.844-4.1-0.154-1.385-0.176-2.72-0.067-4.005v0l4.919 0.152c-0.472 1.924-0.637 3.704-0.495 5.342 0.142 1.637 0.644 3.104 1.506 4.4v0l11.43 4.074z" fill="#ff908b" data-fill-palette-color="primary"></path><path d="M2.284 141.683c0-6.051 4.905-10.956 10.956-10.956 6.051 0 10.956 4.905 10.957 10.956 0 6.051-4.905 10.956-10.957 10.956-6.051 0-10.956-4.905-10.956-10.956z" fill="#ff908b" data-fill-palette-color="primary"></path><path d="M254.073 141.683c0-6.051 4.905-10.956 10.956-10.956 6.051 0 10.956 4.905 10.957 10.956 0 6.051-4.905 10.956-10.957 10.956-6.051 0-10.956-4.905-10.956-10.956z" fill="#ff908b" data-fill-palette-color="primary"></path></g><g id="text-1"></g></svg></g><g transform="matrix(1,0,0,1,53.149493600000014,295.90038478162865)"><svg viewBox="0 0 171.9706128 10.159442126361078" height="10.159442126361078" width="171.9706128"><g transform="matrix(1,0,0,1,0,0)"><svg width="171.9706128" viewBox="0.35 -35 604.25 35.7" height="10.159442126361078" data-palette-color="#ff908b"><path d="M44.05-34.3L44.05-30.15 37.6-30.15 37.6-13.25Q37.6-9.3 35.65-6.13 33.7-2.95 30.2-1.15 26.7 0.65 22.2 0.65L22.2 0.65Q17.6 0.65 14.1-1.15 10.6-2.95 8.7-6.1 6.8-9.25 6.8-13.25L6.8-13.25 6.8-30.15 0.35-30.15 0.35-34.3 18.05-34.3 18.05-30.15 12-30.15 11.95-13.4Q11.95-10.6 13.25-8.38 14.55-6.15 16.88-4.9 19.2-3.65 22.2-3.65L22.2-3.65Q25.15-3.65 27.5-4.9 29.85-6.15 31.15-8.4 32.45-10.65 32.45-13.45L32.45-13.45 32.4-30.15 26.3-30.15 26.3-34.3 44.05-34.3ZM74.7-3.95L79.4-3.95 79.4 0 65.5 0 65.5-3.95 69.85-3.95 69.85-13.7Q69.85-16.45 68.47-18.03 67.1-19.6 64.55-19.6L64.55-19.6Q60.2-19.6 55.35-14.1L55.35-14.1 55.35-3.95 59.7-3.95 59.7 0 45.15 0 45.15-3.95 50.45-3.95 50.45-19.6 45.15-19.6 45.15-23.55 55.35-23.55 55.35-18Q58.15-21.1 60.72-22.63 63.3-24.15 66.25-24.15L66.25-24.15Q70.3-24.15 72.5-21.55 74.7-18.95 74.7-13.85L74.7-13.85 74.7-3.95ZM123.19-4.15L124.19-0.6Q122.54 0.4 120.34 0.4L120.34 0.4Q118.49 0.4 117.22-0.68 115.94-1.75 115.44-3.75L115.44-3.75Q110.44 0.7 105.54 0.7L105.54 0.7Q102.09 0.7 99.69-1.25 97.29-3.2 97.29-6.7L97.29-6.7Q97.29-9.1 98.64-10.88 99.99-12.65 102.27-13.58 104.54-14.5 107.19-14.5L107.19-14.5Q109.44-14.5 111.34-14.08 113.24-13.65 115.24-12.85L115.24-12.85 115.24-15.05Q115.24-17.6 113.54-18.8 111.84-20 109.09-20L109.09-20Q105.19-20 99.69-17.85L99.69-17.85 98.69-21.65Q104.59-24.15 109.69-24.15L109.69-24.15Q114.54-24.15 117.22-21.78 119.89-19.4 119.89-14.85L119.89-14.85 119.89-6.2Q119.89-3.75 121.64-3.75L121.64-3.75Q122.39-3.75 123.19-4.15L123.19-4.15ZM102.14-6.95Q102.14-5.25 103.49-4.33 104.84-3.4 106.79-3.4L106.79-3.4Q108.49-3.4 110.69-4.3 112.89-5.2 115.24-6.95L115.24-6.95 115.24-9.6Q111.84-10.8 108.04-10.9L108.04-10.9Q105.59-10.9 103.87-9.88 102.14-8.85 102.14-6.95L102.14-6.95ZM172.49-3.95L177.14-3.95 177.14 0 163.34 0 163.34-3.95 167.59-3.95 167.59-14Q167.59-16.6 166.44-18.1 165.29-19.6 162.99-19.6L162.99-19.6Q160.94-19.6 158.79-18.25 156.64-16.9 154.59-14.4L154.59-14.4 154.59-14.15 154.59-3.95 158.89-3.95 158.89 0 145.39 0 145.39-3.95 149.69-3.95 149.69-14Q149.69-16.6 148.49-18.1 147.29-19.6 144.99-19.6L144.99-19.6Q142.94-19.6 140.79-18.23 138.64-16.85 136.54-14.3L136.54-14.3 136.54-3.95 140.89-3.95 140.89 0 126.34 0 126.34-3.95 131.64-3.95 131.64-19.6 126.34-19.6 126.34-23.55 136.54-23.55 136.54-18.4Q138.74-21.15 141.34-22.65 143.94-24.15 146.74-24.15L146.74-24.15Q149.59-24.15 151.51-22.58 153.44-21 154.19-17.95L154.19-17.95Q156.44-20.9 159.12-22.53 161.79-24.15 164.69-24.15L164.69-24.15Q168.34-24.15 170.42-21.58 172.49-19 172.49-14.15L172.49-14.15 172.49-3.95ZM192.64 0.7Q189.19 0.7 186.19-0.85 183.19-2.4 181.41-5.25 179.64-8.1 179.64-11.75L179.64-11.75Q179.64-15.45 181.41-18.28 183.19-21.1 186.19-22.65 189.19-24.2 192.64-24.2L192.64-24.2Q196.04-24.2 199.01-22.65 201.99-21.1 203.79-18.25 205.59-15.4 205.59-11.75L205.59-11.75Q205.59-8.1 203.84-5.25 202.09-2.4 199.11-0.85 196.14 0.7 192.64 0.7L192.64 0.7ZM192.64-3.25Q194.89-3.25 196.69-4.3 198.49-5.35 199.51-7.28 200.54-9.2 200.54-11.75L200.54-11.75Q200.54-14.3 199.51-16.23 198.49-18.15 196.69-19.2 194.89-20.25 192.64-20.25L192.64-20.25Q189.19-20.25 186.96-17.93 184.74-15.6 184.74-11.75L184.74-11.75Q184.74-7.9 186.96-5.58 189.19-3.25 192.64-3.25L192.64-3.25ZM230.54-24.15L232.64-24.15 232.64-14.15 228.29-14.15 228.29-19.3Q226.34-19.3 224.04-17.85 221.74-16.4 219.29-13.75L219.29-13.75 219.29-3.95 224.64-3.95 224.64 0 209.09 0 209.09-3.95 214.39-3.95 214.39-19.6 209.09-19.6 209.09-23.55 219.29-23.55 219.29-17.65Q221.94-20.7 224.81-22.43 227.69-24.15 230.54-24.15L230.54-24.15ZM258.48-28.9Q256.88-28.9 255.78-29.75 254.68-30.6 254.68-31.9L254.68-31.9Q254.68-33.25 255.78-34.13 256.88-35 258.48-35L258.48-35Q260.18-35 261.28-34.13 262.38-33.25 262.38-31.9L262.38-31.9Q262.38-30.6 261.28-29.75 260.18-28.9 258.48-28.9L258.48-28.9ZM261.48-3.95L266.83-3.95 266.83 0 251.28 0 251.28-3.95 256.58-3.95 256.58-19.6 251.28-19.6 251.28-23.55 261.48-23.55 261.48-3.95ZM298.58-3.95L303.28-3.95 303.28 0 289.38 0 289.38-3.95 293.73-3.95 293.73-13.7Q293.73-16.45 292.35-18.03 290.98-19.6 288.43-19.6L288.43-19.6Q284.08-19.6 279.23-14.1L279.23-14.1 279.23-3.95 283.58-3.95 283.58 0 269.03 0 269.03-3.95 274.33-3.95 274.33-19.6 269.03-19.6 269.03-23.55 279.23-23.55 279.23-18Q282.03-21.1 284.6-22.63 287.18-24.15 290.13-24.15L290.13-24.15Q294.18-24.15 296.38-21.55 298.58-18.95 298.58-13.85L298.58-13.85 298.58-3.95ZM327.03-7L329.23-3.8Q324.58 0.7 318.38 0.7L318.38 0.7Q315.08 0.7 312.18-0.85 309.28-2.4 307.53-5.23 305.78-8.05 305.78-11.7L305.78-11.7Q305.78-15.15 307.38-18.03 308.98-20.9 311.68-22.55 314.38-24.2 317.53-24.2L317.53-24.2Q322.53-24.2 325.33-20.65L325.33-20.65 325.33-23.55 328.88-23.55 328.88-15.3 326.78-15.15Q324.33-20.15 318.98-20.15L318.98-20.15Q316.68-20.15 314.83-19.07 312.98-18 311.93-16.1 310.88-14.2 310.88-11.75L310.88-11.75Q310.88-9.35 312-7.45 313.13-5.55 314.95-4.53 316.78-3.5 318.88-3.5L318.88-3.5Q321.33-3.45 323.2-4.35 325.08-5.25 327.03-7L327.03-7ZM345.77 0.7Q342.32 0.7 339.32-0.85 336.32-2.4 334.55-5.25 332.77-8.1 332.77-11.75L332.77-11.75Q332.77-15.45 334.55-18.28 336.32-21.1 339.32-22.65 342.32-24.2 345.77-24.2L345.77-24.2Q349.17-24.2 352.15-22.65 355.12-21.1 356.92-18.25 358.72-15.4 358.72-11.75L358.72-11.75Q358.72-8.1 356.97-5.25 355.22-2.4 352.25-0.85 349.27 0.7 345.77 0.7L345.77 0.7ZM345.77-3.25Q348.02-3.25 349.82-4.3 351.62-5.35 352.65-7.28 353.67-9.2 353.67-11.75L353.67-11.75Q353.67-14.3 352.65-16.23 351.62-18.15 349.82-19.2 348.02-20.25 345.77-20.25L345.77-20.25Q342.32-20.25 340.1-17.93 337.87-15.6 337.87-11.75L337.87-11.75Q337.87-7.9 340.1-5.58 342.32-3.25 345.77-3.25L345.77-3.25ZM391.77-3.95L396.47-3.95 396.47 0 382.57 0 382.57-3.95 386.92-3.95 386.92-13.7Q386.92-16.45 385.55-18.03 384.17-19.6 381.62-19.6L381.62-19.6Q377.27-19.6 372.42-14.1L372.42-14.1 372.42-3.95 376.77-3.95 376.77 0 362.22 0 362.22-3.95 367.52-3.95 367.52-19.6 362.22-19.6 362.22-23.55 372.42-23.55 372.42-18Q375.22-21.1 377.8-22.63 380.37-24.15 383.32-24.15L383.32-24.15Q387.37-24.15 389.57-21.55 391.77-18.95 391.77-13.85L391.77-13.85 391.77-3.95ZM427.32-4.05L428.37-0.45Q427.67-0.05 426.67 0.23 425.67 0.5 424.57 0.5L424.57 0.5Q422.72 0.5 421.37-0.48 420.02-1.45 419.52-3.3L419.52-3.3Q417.52-1.5 415.29-0.4 413.07 0.7 410.37 0.7L410.37 0.7Q407.32 0.7 404.69-0.85 402.07-2.4 400.52-5.18 398.97-7.95 398.97-11.45L398.97-11.45Q398.97-15.1 400.59-18.03 402.22-20.95 405.02-22.58 407.82-24.2 411.22-24.2L411.22-24.2Q415.57-24.2 419.22-21L419.22-21 419.22-30.35 413.92-30.35 413.92-34.3 424.02-34.3 424.02-6.05Q424.02-3.65 425.67-3.65L425.67-3.65Q426.77-3.65 427.32-4.05L427.32-4.05ZM404.07-11.5Q404.07-7.9 406.09-5.7 408.12-3.5 411.37-3.5L411.37-3.5Q415.12-3.5 419.22-6.9L419.22-6.9 419.22-17.25Q415.72-20.05 412.32-20.05L412.32-20.05Q409.97-20.05 408.07-18.95 406.17-17.85 405.12-15.9 404.07-13.95 404.07-11.5L404.07-11.5ZM438.06-28.9Q436.47-28.9 435.37-29.75 434.27-30.6 434.27-31.9L434.27-31.9Q434.27-33.25 435.37-34.13 436.47-35 438.06-35L438.06-35Q439.77-35 440.87-34.13 441.97-33.25 441.97-31.9L441.97-31.9Q441.97-30.6 440.87-29.75 439.77-28.9 438.06-28.9L438.06-28.9ZM441.06-3.95L446.42-3.95 446.42 0 430.87 0 430.87-3.95 436.17-3.95 436.17-19.6 430.87-19.6 430.87-23.55 441.06-23.55 441.06-3.95ZM470.21-7L472.41-3.8Q467.76 0.7 461.56 0.7L461.56 0.7Q458.26 0.7 455.36-0.85 452.46-2.4 450.71-5.23 448.96-8.05 448.96-11.7L448.96-11.7Q448.96-15.15 450.56-18.03 452.16-20.9 454.86-22.55 457.56-24.2 460.71-24.2L460.71-24.2Q465.71-24.2 468.51-20.65L468.51-20.65 468.51-23.55 472.06-23.55 472.06-15.3 469.96-15.15Q467.51-20.15 462.16-20.15L462.16-20.15Q459.86-20.15 458.01-19.07 456.16-18 455.11-16.1 454.06-14.2 454.06-11.75L454.06-11.75Q454.06-9.35 455.19-7.45 456.31-5.55 458.14-4.53 459.96-3.5 462.06-3.5L462.06-3.5Q464.51-3.45 466.39-4.35 468.26-5.25 470.21-7L470.21-7ZM482.91-28.9Q481.31-28.9 480.21-29.75 479.11-30.6 479.11-31.9L479.11-31.9Q479.11-33.25 480.21-34.13 481.31-35 482.91-35L482.91-35Q484.61-35 485.71-34.13 486.81-33.25 486.81-31.9L486.81-31.9Q486.81-30.6 485.71-29.75 484.61-28.9 482.91-28.9L482.91-28.9ZM485.91-3.95L491.26-3.95 491.26 0 475.71 0 475.71-3.95 481.01-3.95 481.01-19.6 475.71-19.6 475.71-23.55 485.91-23.55 485.91-3.95ZM506.81 0.7Q503.36 0.7 500.36-0.85 497.36-2.4 495.58-5.25 493.81-8.1 493.81-11.75L493.81-11.75Q493.81-15.45 495.58-18.28 497.36-21.1 500.36-22.65 503.36-24.2 506.81-24.2L506.81-24.2Q510.21-24.2 513.18-22.65 516.16-21.1 517.96-18.25 519.76-15.4 519.76-11.75L519.76-11.75Q519.76-8.1 518.01-5.25 516.26-2.4 513.28-0.85 510.31 0.7 506.81 0.7L506.81 0.7ZM506.81-3.25Q509.06-3.25 510.86-4.3 512.66-5.35 513.68-7.28 514.71-9.2 514.71-11.75L514.71-11.75Q514.71-14.3 513.68-16.23 512.66-18.15 510.86-19.2 509.06-20.25 506.81-20.25L506.81-20.25Q503.36-20.25 501.13-17.93 498.91-15.6 498.91-11.75L498.91-11.75Q498.91-7.9 501.13-5.58 503.36-3.25 506.81-3.25L506.81-3.25ZM552.8-3.95L557.5-3.95 557.5 0 543.6 0 543.6-3.95 547.95-3.95 547.95-13.7Q547.95-16.45 546.58-18.03 545.2-19.6 542.65-19.6L542.65-19.6Q538.3-19.6 533.45-14.1L533.45-14.1 533.45-3.95 537.8-3.95 537.8 0 523.25 0 523.25-3.95 528.55-3.95 528.55-19.6 523.25-19.6 523.25-23.55 533.45-23.55 533.45-18Q536.25-21.1 538.83-22.63 541.4-24.15 544.35-24.15L544.35-24.15Q548.4-24.15 550.6-21.55 552.8-18.95 552.8-13.85L552.8-13.85 552.8-3.95ZM586.55-4.15L587.55-0.6Q585.9 0.4 583.7 0.4L583.7 0.4Q581.85 0.4 580.58-0.68 579.3-1.75 578.8-3.75L578.8-3.75Q573.8 0.7 568.9 0.7L568.9 0.7Q565.45 0.7 563.05-1.25 560.65-3.2 560.65-6.7L560.65-6.7Q560.65-9.1 562-10.88 563.35-12.65 565.63-13.58 567.9-14.5 570.55-14.5L570.55-14.5Q572.8-14.5 574.7-14.08 576.6-13.65 578.6-12.85L578.6-12.85 578.6-15.05Q578.6-17.6 576.9-18.8 575.2-20 572.45-20L572.45-20Q568.55-20 563.05-17.85L563.05-17.85 562.05-21.65Q567.95-24.15 573.05-24.15L573.05-24.15Q577.9-24.15 580.58-21.78 583.25-19.4 583.25-14.85L583.25-14.85 583.25-6.2Q583.25-3.75 585-3.75L585-3.75Q585.75-3.75 586.55-4.15L586.55-4.15ZM565.5-6.95Q565.5-5.25 566.85-4.33 568.2-3.4 570.15-3.4L570.15-3.4Q571.85-3.4 574.05-4.3 576.25-5.2 578.6-6.95L578.6-6.95 578.6-9.6Q575.2-10.8 571.4-10.9L571.4-10.9Q568.95-10.9 567.23-9.88 565.5-8.85 565.5-6.95L565.5-6.95ZM599.15-3.95L604.6-3.95 604.6 0 589 0 589-3.95 594.25-3.95 594.25-30.35 589-30.35 589-34.3 599.15-34.3 599.15-3.95Z" opacity="1" transform="matrix(1,0,0,1,0,0)" fill="#ff908b" class="slogan-text-1" data-fill-palette-color="secondary" id="text-1"></path></svg></g></svg></g></svg></g></svg></g></svg></g><defs></defs></svg><rect width="254.57600491757321" height="280" fill="none" stroke="none" visibility="hidden"></rect></g></svg></g></svg>